<svg width="46" height="50" viewBox="0 0 46 50" fill="none" xmlns="http://www.w3.org/2000/svg">
<path d="M16.8733 0L7.70311 0.959071L0 10.9178V16.4506L5.86897 22.9423L12.6184 21.5407L17.7539 22.5734L16.6534 26.557L20.1747 32.9749L18.4141 37.4748L22.5704 49.6825L28.1714 48.7615L33.3068 42.9338L33.7469 38.8764L37.0483 36.3683L36.3879 29.0651L45.1198 17.827L39.6892 18.5899L31.3993 4.05738L18.3406 3.17215L16.8733 0ZM43.2324 33.5901L41.728 35.7811L40.3274 35.8332C39.0897 38.3878 39.0115 39.8265 38.8748 42.823L40.6905 43.2926L42.9731 37.8153L43.2324 33.5901Z" fill="#2D55FF"/>
</svg>
